<svg width="300" height="355" viewBox="0 0 300 355" fill="none" xmlns="http://www.w3.org/2000/svg">
<path d="M150 300C232.843 300 300 232.843 300 150C300 67.1573 232.843 0 150 0C67.1573 0 0 67.1573 0 150C0 232.843 67.1573 300 150 300Z" fill="#F9BC60"/>
<path d="M152.963 24.9209C157.298 33.9327 161.63 42.8392 162.944 53.2031C164.29 63.8131 162.473 75.9916 154.132 91.3672L154.067 91.4873L154.072 91.623L156.614 166.259L157.587 166.404L164.916 145.166L164.953 145.059L164.94 144.945C160.913 109.852 164.878 90.1501 172.131 77.0947C179.273 64.2398 189.59 57.7934 198.968 49.3604C206.542 66.1928 210.314 84.0544 206.367 101.449C202.374 119.045 190.466 136.246 166.42 151.46L166.278 151.55L166.219 151.706L156.348 177.881L156.315 177.967V242.845L157.232 241.451L165.608 228.738L165.712 228.582L165.687 228.396C162.227 202.615 170.893 181.384 183.129 165.491C195.17 149.852 210.655 139.408 221.38 134.921C228.113 162.651 223.332 181.289 212.883 195.438C202.33 209.726 185.967 219.489 169.569 229.381L169.482 229.434L169.423 229.516L155.662 248.512L155.562 248.649L155.567 248.819C156.091 266.084 155.378 283.327 155.283 300.628C155.189 317.791 155.705 334.978 158.653 352.175L155.372 353.815C151.512 336.083 150.954 319.377 151.232 302.903C151.514 286.256 152.654 269.792 152.08 252.826L152.077 252.758L152.057 252.692L143.382 225.172L143.298 224.905L143.027 224.837C111.268 216.799 94.9604 202.06 86.2988 185.614C77.7618 169.404 76.6167 151.479 75.5527 136.448C91.789 142.047 106.755 149.848 118.751 162.98C130.92 176.303 140.072 195.152 144.355 222.855L144.365 222.919L144.391 222.978L152.467 241.674L153.426 241.47L152.679 181.491L152.678 181.401L152.645 181.317L144.718 160.826L144.634 160.609L144.414 160.534L143.131 160.083C129.945 155.338 118.839 148.009 110.564 137.125C102.138 126.042 96.6226 111.236 94.8662 91.6338C105.364 95.9625 115.96 99.2957 125.123 107.82C134.485 116.53 142.381 130.709 146.899 157.053L146.907 157.102L146.926 157.147L152.609 171.955L153.575 171.753L151.032 116.562L151.021 116.293L150.79 116.155C142.653 111.277 133.615 103.19 127.065 93.7168C120.621 84.396 116.632 73.8022 118.186 63.6416C131.216 66.6712 142.907 79.4882 151.545 112.522L152.529 112.39L152.229 91.001L152.229 90.9121L152.197 90.8301L150.624 86.7275C146.951 77.1663 143.377 67.6721 142.45 58.0361C141.413 47.2556 143.693 36.296 152.963 24.9209Z" fill="#ABD1C6" stroke="#001E1D"/>
</svg>
