<svg width="1260" height="1655" viewBox="0 0 1260 1655" fill="none" xmlns="http://www.w3.org/2000/svg">
<path fill-rule="evenodd" clip-rule="evenodd" d="M271.213 636.668C287.19 611.798 326.515 604.809 380.933 614.893C438.953 625.64 510.83 660.829 586.853 711.534C542.113 709.69 530.855 715.759 489.853 720.2C522.156 726.482 547.796 732.734 573.181 741.871C598.97 751.151 625.006 762.127 660.167 776.32C643.649 779.245 621.579 777.081 600.157 776.645C579.034 776.219 558.854 777.839 544.673 785.314C572.888 791.812 606.509 805.795 640.282 822.8C675.373 840.466 709.14 861.045 738.604 875.779C721.863 877.405 702.383 873.533 683.342 871.013C664.742 868.55 646.205 867.001 631.221 871.771C653.443 878.382 679.525 891.314 705.196 905.79C731.21 920.461 756.729 937.211 780.412 948.046C761.769 951.623 741.76 949.726 722.375 949.236C703.376 948.755 684.66 949.343 667.697 956.389C692.625 966.461 719.839 983.116 745.985 1001.13C772.982 1019.73 800.151 1039.49 826.905 1053.46C794.374 1057.04 756.51 1029.41 726.024 1035.8C760.826 1063.21 799.493 1125.51 833.409 1155.31C826.391 1169.17 815.007 1182.95 798.324 1197.88C758.132 1233.87 734.489 1249.31 722.594 1269.82C710.735 1290.27 710.638 1314.98 714.406 1370.9C717.651 1419.09 733.728 1589.04 706.873 1615.33C669.548 1651.88 667.213 1535.37 666.891 1524.32C664.657 1448.04 667.828 1311.12 580.927 1285.97C536.723 1273.17 511.195 1288.46 495.407 1282.07C520.695 1253.03 541.456 1185.75 563.17 1153.46C545.842 1154.98 529.917 1166.05 514.044 1177.19C498.122 1188.36 481.954 1199.4 464.925 1201.46C479.029 1180.77 491.006 1154.58 501.617 1127.46C512.422 1099.86 520.695 1071.67 530.855 1048.7C514.924 1055.85 500.801 1068.7 486.702 1081.42C472.586 1094.15 458.274 1106.66 442.191 1114.14C461.78 1077.3 468.288 1015.76 482.758 976.106C459.297 998.21 447.892 1041.54 423.624 1062.56C428.665 1038.51 433.754 1005.64 435.906 972.095C438.064 938.337 438.024 904.055 438.606 878.598C430.348 892.465 423.789 914.782 416.31 936.885C408.728 959.308 400.303 981.092 391.02 994.417C391.754 969.389 390.08 938.69 386.78 907.741C383.429 876.278 377.938 845.226 374.572 819.55C359.295 836.235 351.549 874.805 336.197 892.03C306.298 839.054 284.934 788.516 271.728 744.035C258.834 700.632 255.243 661.538 271.213 636.668Z" fill="#6B992F"/>
<path fill-rule="evenodd" clip-rule="evenodd" d="M710.676 1639.6C709.803 1640.9 708.896 1641.95 707.976 1642.85C700.047 1650.61 693.65 1651.41 688.603 1648.05C672.079 1384.99 653.442 1112.58 558.998 935.264C466.737 762.043 360.721 699.019 362.365 697.014C364.012 695.011 471.975 754.022 568.212 924.86C667.002 1100.23 692.109 1373.83 710.676 1639.6Z" fill="#A1D74E"/>
<path fill-rule="evenodd" clip-rule="evenodd" d="M1138.51 246.567C1004.2 316.612 892.387 448.055 814.961 673.333C739.093 894.097 695.912 1206.62 696.734 1642.64C697.839 1657.53 750.203 1660.64 748.885 1642.64C748.078 1213.06 790.285 906.122 864.455 690.307C937.069 479.018 1039.96 356.771 1162.65 292.789L1138.51 246.567Z" fill="#81B13F"/>
<path fill-rule="evenodd" clip-rule="evenodd" d="M723.05 1654.95C736.345 1655.48 749.558 1651.79 748.885 1642.64C748.078 1213.06 790.286 906.123 864.455 690.308C937.069 479.016 1039.96 356.768 1162.65 292.789L1152.76 273.848C1023.82 345.397 916.375 475.62 841.283 694.113C765.902 913.437 722.803 1223.36 723.05 1654.95Z" fill="#6B992F"/>
<path fill-rule="evenodd" clip-rule="evenodd" d="M1069.41 215.843C1139.88 115.537 1164.05 141.831 1099.06 232.951C1163.29 151.103 1185.66 193.806 1122.26 252.845C1205.99 184.699 1237.65 216.263 1144.75 281.179C1231.47 223.729 1248.59 253.229 1157.83 305.873C1219.68 272.462 1285.6 311.878 1168.78 341.429C1273.8 316.952 1302.59 379.598 1171.95 374.691C1246.81 379.126 1275.72 424.739 1167.83 412.497C1238.85 424.06 1256.43 478.503 1152.19 455.356C1231.33 484.676 1245.81 551.775 1127.22 491.253C1253.44 561.859 1172.41 591.961 1093.42 520.312C1175.17 603.554 1097.31 618.052 1048.72 541.344C1094 631.334 1008.93 656.664 997.703 548.935C993.746 627.423 912.856 651.493 937.55 538.27C873.355 700.582 830.938 640.329 894.019 514.739C834.481 608.367 768.128 594.451 866.491 489.333C807.011 545.398 765.909 519.785 843.234 455.38C773.99 504.171 714.269 487.619 827.437 411.855C716.798 470.757 719.833 366.981 824.269 357.82C715.009 352.965 708.863 290.934 836.462 308.539C722.335 282.019 757.258 202.067 858.553 269.814C775.81 205.649 801.289 140.806 894.15 234.549C817.996 142.808 895.665 100.072 939.303 210.479C904.982 78.5951 991.129 103.258 987.431 200.749C995.837 105.876 1045.08 95.4026 1033.06 204.039C1060.83 59.5962 1126.04 128.871 1069.41 215.843Z" fill="#F39C0F"/>
<path fill-rule="evenodd" clip-rule="evenodd" d="M945.94 251.802C927.251 158.065 955.105 158.567 971.553 244.272C959.929 163.985 996.064 174.346 995.263 241.892C1001.86 157.971 1036.71 157.088 1023.36 244.446C1037.6 164.597 1063.46 170.812 1044.33 250.357C1058.76 197.478 1116.48 181.483 1070.28 263.314C1112.99 190.876 1163.83 208.338 1090.76 279.421C1133.55 239.567 1174.85 247.794 1109.88 302.091C1154.63 268.235 1194.81 287.612 1125.65 333.98C1184.78 305.101 1230.44 333.039 1132.47 367.391C1240.24 334.156 1213.62 396.084 1130.68 402.101C1221.65 400.762 1187.93 452.502 1118.49 438.641C1193.64 461.524 1162.16 523.159 1095.32 471.516C1137.48 515.988 1107.54 574.589 1056.93 499.725C1113.98 623.3 1057.15 614.812 1020.23 511.626C1041.02 595.612 997.467 625.568 991.075 513.492C990.704 577.228 954.134 586.639 959.402 508.342C949.672 573.673 908.198 598.467 926.338 493.833C900.041 587.963 843.108 530.412 894.142 466.543C832.604 525.588 794.296 495.677 872.894 433.147C796.509 483.277 770.186 420.543 862.929 399.837C782.191 411.999 759.311 362.728 862.186 360.771C769.432 354.379 787.11 287.551 872.897 322.341C780.006 270.737 840.28 235.394 893.308 289.94C844.292 234.146 864.88 200.723 919.718 265.965C853.155 172.562 927.337 173.046 945.94 251.802Z" fill="#FBCA07"/>
<path fill-rule="evenodd" clip-rule="evenodd" d="M901.3 427.142C832.369 443.398 832.022 422.762 895.064 408.368C835.912 419.051 842.651 392.029 892.693 390.876C830.378 388.155 828.826 362.371 893.858 370.005C834.36 361.519 838.298 342.21 897.687 354.324C858.165 345.007 844.833 302.678 906.618 334.771C851.876 305.015 863.494 266.914 918.016 319.19C887.4 288.534 892.428 257.74 934.312 304.446C908.082 272.189 921.398 241.934 957.518 291.949C934.602 248.907 954.118 214.383 982.084 286.038C954.687 207.093 1001.23 225.209 1007.83 286.467C1004.49 219.143 1043.67 242.771 1035.2 294.545C1050.21 238.312 1096.66 260.035 1060.15 310.856C1091.98 278.489 1136.15 299.15 1082.02 338.557C1172.05 293.124 1167.23 335.422 1091.78 365.43C1153.44 347.865 1176.74 379.346 1093.92 386.968C1141.12 385.595 1149.03 412.431 1090.92 410.556C1139.54 416.075 1158.98 446.147 1081.03 435.411C1151.41 452.456 1110.26 496.097 1061.65 459.959C1106.96 504.002 1085.8 533.142 1037.47 476.553C1076.56 531.821 1030.78 552.929 1013.06 484.793C1024.15 544.264 988.256 562.477 984.153 486.351C981.813 555.2 931.871 543.829 955.418 479.408C919.605 549.529 891.877 505.806 930.903 465.133C890.848 502.866 865.57 488.485 912.468 446.192C845.022 497.896 843.463 442.951 901.3 427.142Z" fill="#F9DE1C"/>
<path fill-rule="evenodd" clip-rule="evenodd" d="M274.793 246.567C409.103 316.612 520.921 448.055 598.347 673.333C674.217 894.097 717.396 1206.62 716.577 1642.64C715.469 1657.53 663.105 1660.64 664.423 1642.64C665.229 1213.06 623.022 906.122 548.85 690.307C476.239 479.018 373.346 356.771 250.66 292.789L274.793 246.567Z" fill="#94C64B"/>
<path fill-rule="evenodd" clip-rule="evenodd" d="M664.423 1642.64C665.232 1213.06 623.022 906.123 548.853 690.308C476.239 479.016 373.349 356.768 250.66 292.789L256.306 281.978C386.513 353.189 494.991 483.703 570.643 703.807C644.261 918.027 687.092 1218.66 688.824 1634.67C688.496 1648.82 709.604 1648.02 716.577 1642.64L716.288 1644.11C712.036 1657.55 663.144 1660.16 664.423 1642.64Z" fill="#81B13F"/>
<path fill-rule="evenodd" clip-rule="evenodd" d="M314.205 448.617C326.279 570.6 290.798 566.458 280.568 455.006C285.323 558.937 240.51 541.174 250.013 455.067C231.047 561.347 186.46 558.091 214.48 448.279C186.268 548.399 154.044 537.223 188.456 438.104C163.404 503.775 87.7245 516.936 156.96 418.308C93.3554 505.389 30.6548 476.714 132.848 395.172C73.2303 440.667 21.5571 424.977 111.292 363.84C49.9367 401.427 1.08202 371.654 95.1756 321.161C16.0754 350.588 -38.6811 309.2 90.6708 277.664C-51.0447 306.542 -9.29403 230.851 97.3122 233.588C-18.9518 223.866 30.5787 162.072 117.456 188.483C24.4243 149.843 72.3507 75.1315 151.159 149.441C102.934 87.3825 148.514 16.3543 203.699 118.258C146.414 -46.6203 217.874 -28.6471 252.037 107.681C236.051 -2.11501 295.404 -34.8776 289.474 108.966C297.954 27.6678 345.814 20.2472 329.256 119.512C349.88 37.3559 405.927 10.9243 369.628 142.185C415.019 25.3515 480.446 105.955 407.291 181.059C493.248 113.434 538.387 156.423 430.216 226.353C533.998 171.967 559.711 255.341 438.754 270.115C543.318 264.731 566.331 330.49 434.794 320.063C552.366 339.88 521.403 422.943 416.288 367.77C528.361 445.299 446.99 482.832 386.17 406.553C441.718 483.921 411.241 523.992 349.451 433.834C422.674 561.405 328.057 551.471 314.205 448.617Z" fill="#F39C0F"/>
<path fill-rule="evenodd" clip-rule="evenodd" d="M384.289 340.791C459.624 399.626 438.19 417.413 369.795 363.211C431.001 416.455 396.862 432.188 353.383 380.487C403.151 448.383 377.322 471.793 330.433 396.887C371.749 466.682 348.099 478.854 310.683 406.097C334.262 455.576 300.964 505.362 282.565 413.216C297.479 495.972 247.559 515.923 256.535 414.373C250.125 472.496 213.463 493.217 227.251 409.679C215.445 464.527 172.352 476.075 194.495 395.806C168.538 456.276 115.714 464.902 167.524 374.941C107.563 470.45 87.3133 406.158 146.231 347.472C78.176 407.85 69.958 346.647 131.612 311.833C59.7463 343.536 43.3741 276.288 127.719 271.805C66.7468 265.62 51.1934 201.678 138.396 225.373C14.5258 168.973 63.1218 138.32 158.439 192.407C87.8763 142.337 101.33 91.2151 179.31 171.965C137.997 123.433 159.562 92.4325 206.673 155.194C171.408 99.3448 186.651 53.4912 241.188 144.611C199.687 56.1271 280.382 62.5828 283.396 144.279C291.489 59.3808 340.036 57.0402 321.293 155.718C346.449 67.885 407.336 98.243 350.58 174.452C403.814 112.545 453.308 134.947 376.637 203.565C451.089 147.88 481.304 210.051 393.603 239.679C497.661 218.153 475.056 284.269 399.279 277.545C472.828 287.833 479.043 326.595 394.915 312.947C506.305 340.277 449.787 388.325 384.289 340.791Z" fill="#FBCA07"/>
<path fill-rule="evenodd" clip-rule="evenodd" d="M303.684 178.807C345.304 121.503 359.034 136.913 320.659 188.961C358.511 142.264 371.039 167.137 333.875 200.667C382.87 162.06 400.87 180.584 346.613 217.237C397.23 184.842 406.854 202.042 353.942 231.624C389.971 212.887 427.697 236.26 359.938 252.261C420.834 239.085 436.893 275.536 361.466 271.506C404.675 274.751 420.962 301.368 358.745 293.314C399.668 300.638 409.332 332.25 349.319 317.926C394.767 335.586 402.52 374.481 334.566 338.438C406.836 380.377 359.749 397.026 314.775 354.913C361.241 403.75 316.13 411.411 288.761 366.656C314.091 419.06 264.718 432.912 259.218 370.576C256.214 415.885 209.268 429.052 224.563 363.865C185.999 457.045 162.045 421.851 199.632 349.876C164.382 403.418 126.178 394.774 183.96 334.95C149.091 366.793 125.578 351.623 170.838 315.12C130.39 342.674 96.0417 332.566 162.109 289.832C97.6579 322.848 100.355 262.926 160.772 258.586C97.6975 254.784 94.7146 218.896 168.263 230.23C102.577 213.867 123.484 167.998 181.378 208.06C134.167 170.239 149.474 133.011 202.267 188.011C159.111 134.32 204.371 110.341 228.571 174.521C209.947 98.0203 259.489 113.053 256.464 169.341C262.183 114.609 290.727 109.008 282.792 171.657C300.153 88.4661 337.189 129.082 303.684 178.807Z" fill="#F9DE1C"/>
<path fill-rule="evenodd" clip-rule="evenodd" d="M1152.25 636.668C1136.28 611.798 1096.95 604.809 1042.54 614.893C984.516 625.64 912.636 660.829 836.619 711.534C881.353 709.69 892.611 715.759 933.616 720.2C901.313 726.482 875.67 732.734 850.288 741.871C824.496 751.151 798.463 762.127 763.302 776.32C779.823 779.245 801.89 777.081 823.318 776.645C844.432 776.219 864.612 777.839 878.796 785.314C850.581 791.812 816.96 805.795 783.184 822.8C748.096 840.466 714.325 861.045 684.862 875.779C701.606 877.405 721.086 873.533 740.127 871.013C758.733 868.55 777.263 867.001 792.248 871.771C770.026 878.382 743.947 891.314 718.276 905.79C692.255 920.461 666.74 937.211 643.054 948.046C661.697 951.623 681.712 949.726 701.091 949.236C720.093 948.755 738.809 949.343 755.769 956.389C730.847 966.461 703.63 983.116 677.484 1001.13C650.487 1019.73 623.315 1039.49 596.567 1053.46C629.092 1057.04 666.959 1029.41 697.442 1035.8C662.649 1063.21 623.976 1125.51 590.06 1155.31C597.075 1169.17 608.462 1182.95 625.148 1197.88C665.334 1233.87 688.977 1249.31 700.872 1269.82C712.734 1290.27 712.831 1314.98 709.063 1370.9C705.815 1419.09 689.738 1589.04 716.593 1615.33C753.921 1651.88 756.256 1535.37 756.578 1524.32C758.809 1448.04 755.638 1311.12 842.539 1285.97C886.746 1273.17 912.274 1288.46 928.065 1282.07C902.771 1253.03 882.01 1185.75 860.302 1153.46C877.627 1154.98 893.552 1166.05 909.425 1177.19C925.347 1188.36 941.512 1199.4 958.544 1201.46C944.44 1180.77 932.463 1154.58 921.852 1127.46C911.047 1099.86 902.771 1071.67 892.611 1048.7C908.545 1055.85 922.668 1068.7 936.764 1081.42C950.883 1094.15 965.195 1106.66 981.281 1114.14C961.689 1077.3 955.184 1015.76 940.708 976.106C964.172 998.21 975.577 1041.54 999.848 1062.56C994.801 1038.51 989.715 1005.64 987.569 972.095C985.402 938.337 985.448 904.055 984.86 878.598C993.124 892.465 999.68 914.782 1007.16 936.885C1014.74 959.308 1023.17 981.092 1032.45 994.417C1031.72 969.389 1033.39 938.69 1036.69 907.741C1040.04 876.278 1045.53 845.226 1048.89 819.55C1064.17 836.235 1071.92 874.805 1087.27 892.03C1117.17 839.054 1138.53 788.516 1151.74 744.035C1164.63 700.632 1168.23 661.538 1152.25 636.668Z" fill="#94C64B"/>
<path fill-rule="evenodd" clip-rule="evenodd" d="M712.792 1639.6C713.666 1640.9 714.579 1641.95 715.495 1642.85C723.421 1650.61 729.825 1651.41 734.865 1648.05C751.389 1384.99 770.026 1112.58 864.47 935.264C956.731 762.043 1062.75 699.019 1061.1 697.014C1059.46 695.011 951.493 754.022 855.256 924.86C756.469 1100.23 731.359 1373.83 712.792 1639.6Z" fill="#A1D74E"/>
</svg>
